<svg xmlns="http://www.w3.org/2000/svg" viewBox="0 0 1024 1024" role="img" aria-label="PomoTimer icon">
  <defs>
    <radialGradient id="tomato" cx="34%" cy="28%" r="72%">
      <stop offset="0%" stop-color="#ff9a85"/>
      <stop offset="45%" stop-color="#f43f5e"/>
      <stop offset="100%" stop-color="#b91c1c"/>
    </radialGradient>
    <linearGradient id="leaf" x1="246" y1="152" x2="744" y2="386" gradientUnits="userSpaceOnUse">
      <stop stop-color="#a7f3d0"/>
      <stop offset="52%" stop-color="#34d399"/>
      <stop offset="100%" stop-color="#15803d"/>
    </linearGradient>
    <linearGradient id="shine" x1="278" y1="246" x2="604" y2="614" gradientUnits="userSpaceOnUse">
      <stop stop-color="#fff7ed" stop-opacity=".72"/>
      <stop offset="100%" stop-color="#fff7ed" stop-opacity="0"/>
    </linearGradient>
    <filter id="soft-shadow" x="-20%" y="-20%" width="140%" height="150%">
      <feDropShadow dx="0" dy="34" stdDeviation="36" flood-color="#450a0a" flood-opacity=".28"/>
    </filter>
  </defs>

  <g filter="url(#soft-shadow)">
    <path fill="url(#leaf)" d="M510 226c39-92 133-145 236-118-31 79-91 132-175 151 72 18 124 64 153 139-101 20-184-12-238-88-52 66-128 93-224 78 28-79 82-127 159-145-72-21-123-70-151-147 102-17 188 32 240 130Z"/>
    <path fill="url(#tomato)" d="M512 220c220 0 390 161 390 369 0 223-170 369-390 369S122 812 122 589c0-208 170-369 390-369Z"/>
    <path fill="#7f1d1d" fill-opacity=".24" d="M848 480c35 183-95 390-314 421-156 22-307-45-365-165 74 91 203 139 337 120 217-31 336-200 342-376Z"/>
    <path fill="url(#shine)" d="M288 522c-41-96 20-214 136-257 70-26 142-14 187 25-52-9-114-1-174 27-91 43-148 123-149 205Z"/>

    <circle cx="512" cy="596" r="218" fill="none" stroke="#fff7ed" stroke-opacity=".92" stroke-width="62"/>
    <path fill="none" stroke="#fff7ed" stroke-linecap="round" stroke-linejoin="round" stroke-width="70" d="M512 462v142l108 82"/>
    <circle cx="512" cy="596" r="37" fill="#fff7ed"/>
  </g>
</svg>
